<svg xmlns="http://www.w3.org/2000/svg" xmlns:xlink="http://www.w3.org/1999/xlink" version="1.1" x="0px" y="0px" viewBox="0 0 100 125" enable-background="new 0 0 100 100" xml:space="preserve" fill="#A3BFB8"><path d="M76.3,20.2c0.2,16.8-5.9,33.3-16.9,46c-9.2,10.7-27.4,24.5-42.6,20.1c0-0.5-0.2-0.9-0.7-1.2c-1.7-1.2-2.9-1.3-4.9-0.8  c-1.2,0.3-1.4,2-0.3,2.7c16.5,9.3,37.5-4.7,48.7-16.6c12.7-13.5,19.9-31.6,19.6-50.2C79.2,18.3,76.3,18.3,76.3,20.2z"/><path d="M80.3,11.1c-0.3-1.1-2.1-1.6-2.7-0.3c-3.2,7.6-7.8,14.3-13.8,20.1c-1.4,1.3,0.7,3.4,2.1,2.1c5.3-5.1,9.5-10.9,12.8-17.5  c2.1,5.6,5,10.8,8.7,15.6c1.1,1.5,3.2-0.6,2.1-2.1C85.3,23.5,82.3,17.6,80.3,11.1z"/></svg>