<svg xmlns="http://www.w3.org/2000/svg" xmlns:xlink="http://www.w3.org/1999/xlink" xml:space="preserve" version="1.1" style="shape-rendering:geometricPrecision;text-rendering:geometricPrecision;image-rendering:optimizeQuality;" viewBox="0 0 100 125" x="0px" y="0px" fill-rule="evenodd" clip-rule="evenodd">
  <defs>
    <style type="text/css">
      .arrow1 {fill:#A3BFB8;fill-rule:nonzero}
      .arrow2 {fill:#FFA726;fill-rule:nonzero}
    </style>
  </defs>
  <g>
    <path class="arrow1" d="M21 22c2,-2 5,1 3,3l-11 11 72 0c2,0 2,4 0,4l-72 0 11 12c2,2 -1,5 -3,3l-14 -15c-1,-1 -1,-2 0,-3l14 -15z"/>
    <path class="arrow2" d="M76 48c-2,-2 1,-5 3,-3l14 15c1,1 1,2 0,3l-14 15c-2,2 -5,-1 -3,-3l11 -11 -72 0c-2,0 -2,-4 0,-4l72 0 -11 -12z"/>
  </g>
</svg>
