<svg xmlns="http://www.w3.org/2000/svg" xmlns:xlink="http://www.w3.org/1999/xlink" version="1.1" x="0px" y="0px" viewBox="0 0 100 125" enable-background="new 0 0 100 100" xml:space="preserve" fill="#FFA726"><g><path d="M74.239,5.012c-2.073,0.235-4.146,0.47-6.219,0.705c-0.078-0.007-0.155-0.015-0.239-0.013   C59.872,5.911,52.068,6.818,44.32,8.412c-1.905,0.392-1.513,3.664,0.466,3.444c5.825-0.645,11.649-1.29,17.474-1.935   c-11.532,10.022-22.658,20.521-30.131,34.08c-8.579,15.567-10.7,33.717-4.634,50.553c0.278,0.771,1.476,0.469,1.246-0.344   c-4.894-17.301-2.436-35.145,6.795-50.539c8.097-13.503,20.149-24.962,32.659-34.408c0.001,0,0.003,0,0.004,0   c-3.602,3.647-5.983,8.327-6.734,13.59c-0.328,2.292,3.185,3.277,3.508,0.967c0.923-6.59,4.421-12.05,10.17-15.47   C76.559,7.507,76.089,4.802,74.239,5.012z"/></g></svg>